<svg width="80" height="80" viewBox="0 0 80 80" fill="none" xmlns="http://www.w3.org/2000/svg">
<path d="M50.425 40L66.0609 24.3641C67.9797 22.4453 67.9797 19.3344 66.0609 17.4141L62.5859 13.9391C60.6672 12.0203 57.5563 12.0203 55.6359 13.9391L40 29.575L24.3641 13.9391C22.4453 12.0203 19.3344 12.0203 17.4141 13.9391L13.9391 17.4141C12.0203 19.3328 12.0203 22.4437 13.9391 24.3641L29.575 40L13.9391 55.6359C12.0203 57.5547 12.0203 60.6656 13.9391 62.5859L17.4141 66.0609C19.3328 67.9797 22.4453 67.9797 24.3641 66.0609L40 50.425L55.6359 66.0609C57.5547 67.9797 60.6672 67.9797 62.5859 66.0609L66.0609 62.5859C67.9797 60.6672 67.9797 57.5563 66.0609 55.6359L50.425 40Z" fill="black"/>
</svg>
