<svg width="60" height="60" viewBox="0 0 60 60" fill="none" xmlns="http://www.w3.org/2000/svg">
<path fill-rule="evenodd" clip-rule="evenodd" d="M44.2875 37.875C41.1391 39.668 37.4818 40.3574 33.8967 39.8336C30.3116 39.3098 27.0044 37.6029 24.5006 34.9842C21.9967 32.3654 20.4399 28.985 20.0774 25.38C19.7149 21.775 20.5676 18.1523 22.5 15.0875C15.265 17.305 10 24.1125 10 32.1675C10 42.0175 17.8825 50.0075 27.605 50.0075C35.3575 50.0075 41.94 44.9275 44.2875 37.875Z" fill="black"/>
<path d="M44.2875 37.875L46.6625 38.665C46.8231 38.1846 46.8339 37.6667 46.6936 37.18C46.5533 36.6932 46.2684 36.2606 45.8767 35.9394C45.485 35.6182 45.005 35.4235 44.5002 35.3812C43.9954 35.3389 43.4897 35.451 43.05 35.7025L44.2875 37.875ZM22.5 15.0875L24.615 16.4225C24.8881 15.9906 25.0223 15.4854 24.9995 14.9749C24.9767 14.4644 24.798 13.9732 24.4875 13.5673C24.177 13.1615 23.7496 12.8605 23.2628 12.705C22.776 12.5495 22.2533 12.5469 21.765 12.6975L22.5 15.0875ZM43.0525 35.7025C40.9811 36.8835 38.6369 37.5023 36.2525 37.4975V42.4975C39.5048 42.5024 42.7019 41.6579 45.5275 40.0475L43.0525 35.7025ZM36.2525 37.4975C34.4468 37.4979 32.6588 37.1425 30.9904 36.4518C29.3221 35.7611 27.8061 34.7486 26.529 33.472C25.252 32.1954 24.2389 30.6798 23.5476 29.0117C22.8563 27.3436 22.5003 25.5557 22.5 23.75H17.5C17.5 28.7228 19.4754 33.492 22.9917 37.0083C26.5081 40.5246 31.2772 42.5 36.25 42.5V37.5L36.2525 37.4975ZM22.5 23.75C22.5 21.0525 23.275 18.545 24.6125 16.425L20.3825 13.75C18.4935 16.7429 17.4939 20.2109 17.5 23.75H22.5ZM12.5 32.17C12.5 25.2225 17.0375 19.375 23.23 17.475L21.765 12.6975C13.4925 15.2325 7.5 23.0025 7.5 32.1675H12.5V32.17ZM27.605 47.51C19.295 47.5075 12.5 40.67 12.5 32.1675H7.5C7.5 43.3675 16.47 52.5075 27.605 52.5075V47.51ZM41.9175 37.085C39.8925 43.1675 34.2325 47.51 27.605 47.51V52.5075C36.485 52.5075 43.9875 46.6925 46.66 38.6675L41.9175 37.0875V37.085Z" fill="black"/>
<path fill-rule="evenodd" clip-rule="evenodd" d="M42.5 7.5C43.163 7.5 43.7989 7.76339 44.2678 8.23223C44.7366 8.70107 45 9.33696 45 10C45 11.3261 45.5268 12.5979 46.4645 13.5355C47.4021 14.4732 48.6739 15 50 15C50.663 15 51.2989 15.2634 51.7678 15.7322C52.2366 16.2011 52.5 16.837 52.5 17.5C52.5 18.163 52.2366 18.7989 51.7678 19.2678C51.2989 19.7366 50.663 20 50 20C48.6739 20 47.4021 20.5268 46.4645 21.4645C45.5268 22.4021 45 23.6739 45 25C45 25.663 44.7366 26.2989 44.2678 26.7678C43.7989 27.2366 43.163 27.5 42.5 27.5C41.837 27.5 41.2011 27.2366 40.7322 26.7678C40.2634 26.2989 40 25.663 40 25C40 23.6739 39.4732 22.4021 38.5355 21.4645C37.5979 20.5268 36.3261 20 35 20C34.337 20 33.7011 19.7366 33.2322 19.2678C32.7634 18.7989 32.5 18.163 32.5 17.5C32.5 16.837 32.7634 16.2011 33.2322 15.7322C33.7011 15.2634 34.337 15 35 15C36.3261 15 37.5979 14.4732 38.5355 13.5355C39.4732 12.5979 40 11.3261 40 10C40 9.33696 40.2634 8.70107 40.7322 8.23223C41.2011 7.76339 41.837 7.5 42.5 7.5Z" fill="black"/>
</svg>
