<svg width="80" height="80" viewBox="0 0 80 80" fill="none" xmlns="http://www.w3.org/2000/svg">
<path d="M70 10H76.25C77.625 10 78.75 11.1187 78.75 12.5C78.75 13.8813 77.625 15 76.25 15H70V21.25C70 22.625 68.875 23.75 67.5 23.75C66.125 23.75 65 22.625 65 21.25V15H58.75C57.375 15 56.25 13.8813 56.25 12.5C56.25 11.1187 57.375 10 58.75 10H65V3.75C65 2.36875 66.125 1.25 67.5 1.25C68.875 1.25 70 2.36875 70 3.75V10ZM43.4062 20.7344L77.375 35.9531C78.9688 36.6719 80 38.25 80 40C80 41.75 78.9688 43.3281 77.375 44.0469L43.4062 59.2656C42.2031 59.75 41.1719 60 40 60C38.8281 60 37.6562 59.75 36.5937 59.2656L2.61875 44.0469C1.02516 43.3281 4.6875e-05 41.75 4.6875e-05 40C4.6875e-05 38.25 1.02516 36.6719 2.61875 35.9531L36.5937 20.7344C37.6562 20.25 38.8281 20 40 20C41.1719 20 42.2031 20.25 43.4062 20.7344ZM5.82344 40L38.625 54.7031C38.9219 54.9063 39.3906 55 40 55C40.4688 55 40.9375 54.9063 41.375 54.7031L74.1719 40L41.375 25.2969C40.9375 25.0937 40.4688 25 40 25C39.3906 25 38.9219 25.0937 38.625 25.2969L5.82344 40ZM5.82344 60L38.625 74.7031C38.9219 74.9063 39.3906 75 40 75C40.4688 75 40.9375 74.9063 41.375 74.7031L74.1719 60L68.9844 57.6719C67.7187 57.1094 67.1562 55.625 67.7187 54.3594C68.2812 53.1094 69.7656 52.5469 71.0156 53.1094L77.375 55.9531C78.9688 56.6719 80 58.25 80 60C80 61.75 78.9688 63.3281 77.375 64.0469L43.4062 79.2656C42.2031 79.75 41.1719 80 40 80C38.8281 80 37.6562 79.75 36.5937 79.2656L2.61875 64.0469C1.02516 63.3281 0 61.75 0 60C0 58.25 1.02516 56.6719 2.61875 55.9531L8.97812 53.1094C10.2375 52.5469 11.7172 53.1094 12.2812 54.3594C12.8453 55.625 12.2828 57.1094 11.0219 57.6719L5.82344 60Z" fill="black"/>
</svg>
