<svg width="80" height="80" viewBox="0 0 80 80" fill="none" xmlns="http://www.w3.org/2000/svg">
<path d="M40 1.25C18.6331 1.25 1.25 18.6331 1.25 40C1.25 61.3669 18.6331 78.75 40 78.75C61.3669 78.75 78.75 61.3669 78.75 40C78.75 18.6331 61.3669 1.25 40 1.25ZM65.6203 19.1197C70.2302 24.7519 73.0217 31.9255 73.0945 39.7377C72.0033 39.5069 61.0605 37.2873 50.0473 38.6723C49.1486 36.4784 48.3003 34.5484 47.1384 32.1702C59.3761 27.1738 64.9225 20.0636 65.6203 19.1197ZM61.9408 15.2922C61.3455 16.1402 56.3631 22.8369 44.5937 27.2483C39.17 17.2833 33.1586 9.09703 32.2438 7.87203C42.74 5.34187 53.8009 8.07047 61.9408 15.2922ZM25.9283 10.0969C26.8009 11.2936 32.7155 19.49 38.1997 29.2389C22.7173 33.3503 9.08094 33.2911 7.60063 33.2716C9.74688 23.0008 16.6684 14.4645 25.9283 10.0969ZM6.90156 40.0505C6.90156 39.712 6.90828 39.3752 6.91844 39.0391C8.36656 39.0688 24.4059 39.2755 40.935 34.3287C41.8825 36.1831 42.7877 38.0655 43.6184 39.9458C31.6498 43.3169 20.7756 52.9969 15.4105 62.1811C10.1241 56.3133 6.90156 48.5516 6.90156 40.0505ZM19.6839 66.1619C23.1412 59.0942 32.5242 49.9709 45.8681 45.4187C50.515 57.4942 52.4367 67.6145 52.9289 70.5184C42.2864 75.0517 29.4891 73.808 19.6839 66.1619ZM58.4933 67.4883C58.1541 65.4748 56.3923 55.7856 52.0633 43.8894C62.4352 42.2291 71.5477 44.9469 72.68 45.3042C71.2047 54.5137 65.9186 62.4673 58.4933 67.4883Z" fill="white"/>
</svg>
