<svg width="80" height="80" viewBox="0 0 80 80" fill="none" xmlns="http://www.w3.org/2000/svg">
<path d="M24.4674 7.5C25.7508 7.5 26.8008 8.625 26.8008 10V32.5V37.5H24.4674C23.6654 37.5 22.8924 37.5938 22.1341 37.75V10C22.1341 8.625 23.1841 7.5 24.4674 7.5ZM15.1341 10V42.5C13.6758 44.5937 12.8008 47.1875 12.8008 50V53.75C12.8008 68.25 23.7674 80 37.3008 80H44.3008C57.8341 80 68.8008 68.25 68.8008 53.75V45V40V20C68.8008 14.4844 64.6154 10 59.4674 10C54.3195 10 50.1341 14.4844 50.1341 20V27.8125C49.3904 27.6094 48.6029 27.5 47.8008 27.5C46.6487 27.5 45.5549 27.7188 44.5341 28.125C43.0174 24.7969 39.8237 22.5 36.1341 22.5C35.332 22.5 34.5445 22.6094 33.8008 22.8125V10C33.8008 4.48438 29.6154 0 24.4674 0C19.3195 0 15.1341 4.48438 15.1341 10ZM61.8008 40V45V53.75C61.8008 64.1094 53.9695 72.5 44.3008 72.5H37.3008C27.632 72.5 19.8008 64.1094 19.8008 53.75V50C19.8008 47.2344 21.8862 45 24.4674 45H30.3008H36.1341C37.4174 45 38.4674 46.125 38.4674 47.5C38.4674 48.875 37.4174 50 36.1341 50H30.3008C28.3612 50 26.8008 51.6719 26.8008 53.75C26.8008 55.8281 28.3612 57.5 30.3008 57.5H36.1341C38.3362 57.5 40.3633 56.6719 41.9674 55.3125C43.5716 56.6875 45.5987 57.5 47.8008 57.5C52.9487 57.5 57.1341 53.0156 57.1341 47.5V40V37.5V20C57.1341 18.625 58.1841 17.5 59.4674 17.5C60.7508 17.5 61.8008 18.625 61.8008 20V40ZM36.1341 37.5H33.8008V32.5C33.8008 31.125 34.8508 30 36.1341 30C37.4174 30 38.4674 31.125 38.4674 32.5V37.5V37.8125C37.7237 37.6094 36.9362 37.5 36.1341 37.5ZM50.1341 40V47.5C50.1341 48.875 49.0841 50 47.8008 50C46.5174 50 45.4674 48.875 45.4674 47.5V41.25V37.5C45.4674 36.125 46.5174 35 47.8008 35C49.0841 35 50.1341 36.125 50.1341 37.5V40Z" fill="white"/>
</svg>
