<svg width="60" height="60" viewBox="0 0 60 60" fill="none" xmlns="http://www.w3.org/2000/svg">
<path d="M37.5 30C37.5 31.9891 36.7098 33.8968 35.3033 35.3033C33.8968 36.7098 31.9891 37.5 30 37.5C28.0109 37.5 26.1032 36.7098 24.6967 35.3033C23.2902 33.8968 22.5 31.9891 22.5 30C22.5 28.0109 23.2902 26.1032 24.6967 24.6967C26.1032 23.2902 28.0109 22.5 30 22.5C31.9891 22.5 33.8968 23.2902 35.3033 24.6967C36.7098 26.1032 37.5 28.0109 37.5 30Z" stroke="black" stroke-width="5" stroke-linecap="round" stroke-linejoin="round"/>
<path d="M30 5V11.123M47.6765 12.3204L42.0906 17.9063M55 29.9969H48.877M47.6765 47.6733L43.0906 43.0874M30 55V48.8457M12.3235 47.6733L17.9313 42.0625M5 29.9969H12.3235M11.2617 11.2461L16.9313 16.9063" stroke="black" stroke-width="5" stroke-linecap="round" stroke-linejoin="round"/>
</svg>
