<svg width="80" height="80" viewBox="0 0 80 80" fill="none" xmlns="http://www.w3.org/2000/svg">
<path d="M20.6687 69.9999H6.15625V23.2655H20.6687V69.9999ZM13.4047 16.8905C8.76406 16.8905 5 13.0468 5 8.40615C5 6.17709 5.88549 4.03933 7.46168 2.46314C9.03786 0.886956 11.1756 0.00146484 13.4047 0.00146484C15.6337 0.00146484 17.7715 0.886956 19.3477 2.46314C20.9239 4.03933 21.8094 6.17709 21.8094 8.40615C21.8094 13.0468 18.0438 16.8905 13.4047 16.8905ZM74.9844 69.9999H60.5031V47.2499C60.5031 41.828 60.3937 34.8749 52.9578 34.8749C45.4125 34.8749 44.2563 40.7655 44.2563 46.8593V69.9999H29.7594V23.2655H43.6781V29.6405H43.8812C45.8187 25.9687 50.5516 22.0937 57.6125 22.0937C72.3 22.0937 75 31.7655 75 44.328V69.9999H74.9844Z" fill="white"/>
</svg>
