<svg width="80" height="80" viewBox="0 0 80 80" fill="none" xmlns="http://www.w3.org/2000/svg">
<path d="M10 17.5C8.625 17.5 7.5 18.625 7.5 20V23.4531L34.4531 45.5781C37.6875 48.2344 42.3281 48.2344 45.5625 45.5781L72.5 23.4531V20C72.5 18.625 71.375 17.5 70 17.5H10ZM7.5 33.1562V60C7.5 61.375 8.625 62.5 10 62.5H70C71.375 62.5 72.5 61.375 72.5 60V33.1562L50.3125 51.375C44.3125 56.2969 35.6719 56.2969 29.6875 51.375L7.5 33.1562ZM0 20C0 14.4844 4.48438 10 10 10H70C75.5156 10 80 14.4844 80 20V60C80 65.5156 75.5156 70 70 70H10C4.48438 70 0 65.5156 0 60V20Z" fill="white"/>
</svg>
