<svg width="80" height="80" viewBox="0 0 80 80" fill="none" xmlns="http://www.w3.org/2000/svg">
<path d="M2.5 20H67.5C68.8813 20 70 18.8813 70 17.5V7.5C70 6.11875 68.8813 5 67.5 5H2.5C1.11875 5 0 6.11875 0 7.5V17.5C0 18.8813 1.11875 20 2.5 20ZM77.5 32.5H12.5C11.1187 32.5 10 33.6187 10 35V45C10 46.3813 11.1187 47.5 12.5 47.5H77.5C78.8813 47.5 80 46.3813 80 45V35C80 33.6187 78.8813 32.5 77.5 32.5ZM67.5 60H2.5C1.11875 60 0 61.1187 0 62.5V72.5C0 73.8813 1.11875 75 2.5 75H67.5C68.8813 75 70 73.8813 70 72.5V62.5C70 61.1187 68.8813 60 67.5 60Z" fill="#070707"/>
</svg>
